<svg xmlns="http://www.w3.org/2000/svg" width="41.744" height="41.7" viewBox="0 0 41.744 41.7">
  <g id="download_2_" data-name="download (2)" transform="translate(-147.008 -147.48)">
    <path id="Path_23688" data-name="Path 23688" d="M215.514,210.2a17.317,17.317,0,0,0-14.033-27.425,17.285,17.285,0,1,0,0,34.569,15.736,15.736,0,0,0,4.749-.685l.085-.043-.342-1.711-.128.043a15.818,15.818,0,0,1-4.45.685,15.486,15.486,0,1,1,12.536-6.332v.085l1.5.856Z" transform="translate(-33.601 -31.882)" fill="#0094d9" stroke="#ecf9ff" stroke-width="0.5"/>
    <path id="Path_23689" data-name="Path 23689" d="M182.512,153.805a20.444,20.444,0,0,0-14.632-6.075,19.548,19.548,0,0,0-5.519.77l-.085.043.3,1.583.128-.043a19.626,19.626,0,0,1,5.177-.727,19.017,19.017,0,1,1-19,18.953,18.788,18.788,0,0,1,3.508-11l.085-.085-1.412-.813-.043.085a20.23,20.23,0,0,0-3.765,11.851A20.622,20.622,0,1,0,182.512,153.8Z" fill="#0094d9" stroke="#ecf9ff" stroke-width="0.5"/>
    <path id="Path_23690" data-name="Path 23690" d="M280,309.23h-.642a5.168,5.168,0,0,0-5.177,5.177c0,2.824,2.524,4.706,2.61,4.792a.442.442,0,0,1,.214.3v3.423a1.866,1.866,0,0,0,1.754,1.84,1.671,1.671,0,0,0,.685.428h.428a1.754,1.754,0,0,0,.556-.342,1.809,1.809,0,0,0,1.754-1.84v-3.423c0-.085.128-.214.3-.3a6.578,6.578,0,0,0,2.61-4.792A5.064,5.064,0,0,0,280,309.23Zm-2.31,8.685a5.286,5.286,0,0,1-1.968-3.594,3.607,3.607,0,0,1,3.637-3.637H280a3.607,3.607,0,0,1,3.637,3.637,4.811,4.811,0,0,1-1.968,3.508,1.97,1.97,0,0,0-.9,1.455V320.4H278.5v-1.07A1.9,1.9,0,0,0,277.688,317.915Zm3.166,4.107v.9a.322.322,0,0,1-.3.3h-1.669a.322.322,0,0,1-.3-.3v-.9Z" transform="translate(-115.456 -146.91)" fill="#0094d9" stroke="#ecf9ff" stroke-width="0.5"/>
    <path id="Path_23691" data-name="Path 23691" d="M311.62,343.646l.9.471c.085,0,.128.085.214.085s.214,0,.257-.085a.526.526,0,0,0,.214-.428l-.214-1.027.77-.685c.128-.128.128-.257.128-.471-.085-.128-.214-.257-.342-.257l-1.027-.128-.471-.9a.535.535,0,0,0-.855,0l-.471.9-1.027.128c-.129,0-.342.128-.342.257-.085.128,0,.342.128.471l.77.685-.214,1.027a.593.593,0,0,0,.214.428.627.627,0,0,0,.471.085Z" transform="translate(-147.42 -174.909)" fill="#0094d9" stroke="#ecf9ff" stroke-width="0.5"/>
    <path id="Path_23692" data-name="Path 23692" d="M403.8,296.909h-2.268a.644.644,0,0,0-.6.6l-.085,2.31a.643.643,0,0,0,.171.471.549.549,0,0,0,.428.171,1.051,1.051,0,0,0,.471-.171.549.549,0,0,0,.171-.428l.043-.941.257.257a3.409,3.409,0,0,1,0,4.877l-1.24,1.283a4.715,4.715,0,0,0-.3,6.289,2.006,2.006,0,0,0,.342,2.353,2.067,2.067,0,0,0,2.867,0,2.022,2.022,0,0,0-2.31-3.252,3.451,3.451,0,0,1,.257-4.535l1.2-1.2a4.661,4.661,0,0,0,0-6.589l-.171-.171h.77a.758.758,0,0,0,.428-.171.549.549,0,0,0,.171-.428.758.758,0,0,0-.171-.428.536.536,0,0,0-.428-.3Zm-.556,16.172a.787.787,0,1,1,0-1.112A.762.762,0,0,1,403.248,313.081Z" transform="translate(-229.72 -135.702)" fill="#0094d9" stroke="#ecf9ff" stroke-width="0.5"/>
    <path id="Path_23693" data-name="Path 23693" d="M449.61,398.86a.549.549,0,0,0-.171-.428.654.654,0,0,0-.428-.171.548.548,0,0,0-.428.171l-.727.727-.727-.727a.654.654,0,0,0-.428-.171.549.549,0,0,0-.428.171.654.654,0,0,0-.171.428.473.473,0,0,0,.214.428l.727.685-.727.685a1,1,0,0,0-.214.428.549.549,0,0,0,.171.428.654.654,0,0,0,.428.171.548.548,0,0,0,.428-.171l.813-.727.727.727a.654.654,0,0,0,.428.171.549.549,0,0,0,.428-.171.65.65,0,0,0,0-.856l-.727-.685.727-.685A1.066,1.066,0,0,0,449.61,398.86Z" transform="translate(-271.846 -227.898)" fill="#0094d9" stroke="#ecf9ff" stroke-width="0.5"/>
    <path id="Path_23694" data-name="Path 23694" d="M359.43,264.216a.548.548,0,0,0,.171.428.654.654,0,0,0,.428.171.548.548,0,0,0,.428-.171l.813-.727.727.727a.654.654,0,0,0,.428.171.548.548,0,0,0,.428-.171.654.654,0,0,0,.171-.428.473.473,0,0,0-.214-.428l-.727-.685.727-.685a.572.572,0,0,0,0-.856.654.654,0,0,0-.428-.171.548.548,0,0,0-.428.171l-.77.77-.727-.727a.654.654,0,0,0-.428-.171.548.548,0,0,0-.428.171.654.654,0,0,0-.171.428.473.473,0,0,0,.214.428l.727.685-.728.642A.521.521,0,0,0,359.43,264.216Z" transform="translate(-193.004 -103.394)" fill="#0094d9" stroke="#ecf9ff" stroke-width="0.5"/>
  </g>
</svg>
