<svg xmlns="http://www.w3.org/2000/svg" xmlns:xlink="http://www.w3.org/1999/xlink" width="29.556" height="34.475" viewBox="0 0 29.556 34.475">
  <defs>
    <clipPath id="clip-path">
      <path id="Path_23687" data-name="Path 23687" d="M173,139.21h29.556v34.475H173Z" fill="#0094d9" stroke="#ecf9ff" stroke-width="1"/>
    </clipPath>
  </defs>
  <g id="download_1_" data-name="download (1)" transform="translate(-173 -139.21)" clip-path="url(#clip-path)">
    <path id="Path_23686" data-name="Path 23686" d="M188.669,139.218a1.075,1.075,0,0,0-.524.166L174.528,147.9a1.078,1.078,0,0,0,0,1.831l13.616,8.516h0a1.077,1.077,0,0,0,1.145,0l13.615-8.516h0a1.077,1.077,0,0,0,0-1.831l-13.615-8.518a1.077,1.077,0,0,0-.621-.166Zm.049,2.346,11.579,7.253-11.579,7.253-11.58-7.253Zm-13.656,14.618a1.078,1.078,0,0,0-.533,1.995l13.617,8.526a1.077,1.077,0,0,0,1.145,0l13.615-8.526a1.079,1.079,0,0,0-1.145-1.829l-13.042,8.169-13.044-8.169a1.078,1.078,0,0,0-.612-.166Zm0,6.824a1.078,1.078,0,0,0-.533,2l13.617,8.518a1.078,1.078,0,0,0,1.145,0l13.615-8.518a1.079,1.079,0,0,0-1.145-1.829l-13.042,8.166-13.044-8.166a1.077,1.077,0,0,0-.612-.175Z" transform="translate(-0.93 -0.007)" fill="#0094d9" stroke="#ecf9ff" stroke-width="1"/>
  </g>
</svg>
