<svg xmlns="http://www.w3.org/2000/svg" xmlns:xlink="http://www.w3.org/1999/xlink" width="31.159" height="32.621" viewBox="0 0 31.159 32.621">
  <defs>
    <clipPath id="clip-path">
      <path id="Path_23671" data-name="Path 23671" d="M205,139.21h14.809v3.705H205Z" transform="translate(-205 -139.21)" fill="#0094d9"/>
    </clipPath>
    <clipPath id="clip-path-2">
      <path id="Path_23673" data-name="Path 23673" d="M150,182h16.118v29.673H150Z" transform="translate(-150 -182)" fill="#0094d9"/>
    </clipPath>
    <clipPath id="clip-path-3">
      <path id="Path_23679" data-name="Path 23679" d="M505,561h6.681v3.568H505Z" transform="translate(-505 -561)" fill="#0094d9"/>
    </clipPath>
    <clipPath id="clip-path-4">
      <path id="Path_23683" data-name="Path 23683" d="M402,369h6.13v16.792H402Z" transform="translate(-402 -369)" fill="#0094d9"/>
    </clipPath>
  </defs>
  <g id="download" transform="translate(-150 -139.21)">
    <g id="Group_41351" data-name="Group 41351" transform="translate(153.788 139.21)" clip-path="url(#clip-path)">
      <path id="Path_23670" data-name="Path 23670" d="M219.079,142.9h-12.4a1.17,1.17,0,0,1-1.174-1.174v-1.337a1.17,1.17,0,0,1,1.174-1.174h12.4a1.17,1.17,0,0,1,1.174,1.174v1.37A1.163,1.163,0,0,1,219.079,142.9Zm-12.4-2.969a.432.432,0,0,0-.424.424v1.37a.432.432,0,0,0,.424.424h12.4a.432.432,0,0,0,.424-.424v-1.337a.432.432,0,0,0-.424-.424h-12.4Z" transform="translate(-205.474 -139.214)" fill="#0094d9"/>
    </g>
    <g id="Group_41352" data-name="Group 41352" transform="translate(150 142.157)" clip-path="url(#clip-path-2)">
      <path id="Path_23672" data-name="Path 23672" d="M165.783,211.957h-9.525a6.237,6.237,0,0,1-6.165-6.23V191.048c0-4.73,3.164-6.328,4.534-6.785a.814.814,0,0,0,.555-.783v-.816a.359.359,0,0,1,.718,0v.816a1.591,1.591,0,0,1-1.044,1.5c-1.5.522-4.012,1.99-4.012,6.1v14.679a5.5,5.5,0,0,0,5.415,5.48h9.525a.359.359,0,1,1,0,.718Z" transform="translate(-150.086 -182.284)" fill="#0094d9"/>
    </g>
    <path id="Path_23674" data-name="Path 23674" d="M397.038,191.316a.362.362,0,0,1-.359-.359V190.6c0-4.11-2.512-5.578-4.012-6.1a1.592,1.592,0,0,1-1.044-1.5v-.816a.359.359,0,0,1,.718,0V183a.814.814,0,0,0,.555.783,6.782,6.782,0,0,1,4.5,6.818v.359a.362.362,0,0,1-.359.359Z" transform="translate(-224.98 -39.678)" fill="#0094d9"/>
    <path id="Path_23675" data-name="Path 23675" d="M156.436,372.406a38.535,38.535,0,0,1-6.1-.489.365.365,0,1,1,.13-.718,47.047,47.047,0,0,0,5.969.457.37.37,0,0,1,.359.391.362.362,0,0,1-.359.359Z" transform="translate(-0.034 -216.005)" fill="#0094d9"/>
    <path id="Path_23676" data-name="Path 23676" d="M158.555,482.306h0a54.3,54.3,0,0,1-8.22-.522.365.365,0,0,1,.13-.718,56.362,56.362,0,0,0,8.057.489.362.362,0,0,1,.359.359.329.329,0,0,1-.326.391Z" transform="translate(-0.034 -318.305)" fill="#0094d9"/>
    <path id="Path_23677" data-name="Path 23677" d="M265,354.578l1.859-7.177a.535.535,0,0,0-.065-.391.777.777,0,0,0-.359-.2l-2.675-.033.457-8.678h5.839l-1.142,4.665a.429.429,0,0,0,.1.391.524.524,0,0,0,.359.163h1.272a1.3,1.3,0,0,1,1.044,2.055Zm-.457-8.514,1.925.033a1.206,1.206,0,0,1,.946.457,1.125,1.125,0,0,1,.2,1.011l-.881,3.425,4.371-6.035a.544.544,0,0,0,.033-.587.538.538,0,0,0-.489-.294h-1.272a1.206,1.206,0,0,1-.946-.457,1.248,1.248,0,0,1-.228-1.011l.913-3.751h-4.208Z" transform="translate(-105.928 -185.194)" fill="#0094d9"/>
    <g id="Group_41353" data-name="Group 41353" transform="translate(174.453 168.263)" clip-path="url(#clip-path-3)">
      <path id="Path_23678" data-name="Path 23678" d="M510.618,565.165h-3.1a1.762,1.762,0,1,1,0-3.523h3.1a1.762,1.762,0,0,1,0,3.523Zm-3.066-2.773a1.011,1.011,0,1,0,0,2.022h3.1a1.011,1.011,0,1,0,0-2.022Z" transform="translate(-505.706 -561.598)" fill="#0094d9"/>
    </g>
    <path id="Path_23680" data-name="Path 23680" d="M510.618,524.915a.359.359,0,1,1,0-.718,1.011,1.011,0,0,0,0-2.022h-3.1a1.011,1.011,0,1,0,0,2.022.359.359,0,1,1,0,.718,1.762,1.762,0,0,1,0-3.523h3.1a1.762,1.762,0,0,1,0,3.523Z" transform="translate(-331.253 -355.857)" fill="#0094d9"/>
    <path id="Path_23681" data-name="Path 23681" d="M511.058,484.655a.359.359,0,1,1,0-.718,1.011,1.011,0,0,0,0-2.022h-3.1a1.011,1.011,0,0,0,0,2.022.362.362,0,0,1,.359.359.335.335,0,0,1-.326.359,1.762,1.762,0,0,1,0-3.523h3.1a1.754,1.754,0,0,1,1.762,1.762,1.782,1.782,0,0,1-1.794,1.762Z" transform="translate(-331.693 -318.37)" fill="#0094d9"/>
    <g id="Group_41354" data-name="Group 41354" transform="translate(167.358 155.038)" clip-path="url(#clip-path-4)">
      <path id="Path_23682" data-name="Path 23682" d="M408.607,386.571h-4.175a1.531,1.531,0,0,1-1.533-1.533v-9.95c-.065-1.077.294-3.066,2.055-3.49v-1.4a.359.359,0,0,1,.718,0v2.023l-.326.033c-1.925.261-1.762,2.675-1.762,2.805v9.981a.794.794,0,0,0,.783.783h4.175a.362.362,0,0,1,.359.359c0,.2-.1.391-.294.391Z" transform="translate(-402.83 -369.778)" fill="#0094d9"/>
    </g>
    <path id="Path_23684" data-name="Path 23684" d="M521,376.462a.362.362,0,0,1-.359-.359v-1.044c0-.1.2-2.544-1.762-2.805l-.326-.033V370.2a.359.359,0,0,1,.718,0v1.4c1.827.424,2.153,2.447,2.055,3.49v.979A.329.329,0,0,1,521,376.462Z" transform="translate(-343.165 -214.744)" fill="#0094d9"/>
    <path id="Path_23685" data-name="Path 23685" d="M424.522,338.367H417.8a1.086,1.086,0,0,1-1.077-1.077v-.946a1.086,1.086,0,0,1,1.077-1.077h6.752a1.086,1.086,0,0,1,1.077,1.077v.946A1.093,1.093,0,0,1,424.522,338.367Zm-6.72-2.381a.362.362,0,0,0-.359.359v.946a.362.362,0,0,0,.359.359h6.752a.362.362,0,0,0,.359-.359v-.946a.362.362,0,0,0-.359-.359Z" transform="translate(-248.354 -182.553)" fill="#0094d9"/>
  </g>
</svg>
